<?xml version="1.0" standalone="no"?><!DOCTYPE svg PUBLIC "-//W3C//DTD SVG 1.1//EN" "http://www.w3.org/Graphics/SVG/1.1/DTD/svg11.dtd"><svg t="1516269068413" class="icon" style="" viewBox="0 0 1024 1024" version="1.1" xmlns="http://www.w3.org/2000/svg" p-id="25209" id="mx_n_1516269068415" data-spm-anchor-id="a313x.7781069.0.i26" xmlns:xlink="http://www.w3.org/1999/xlink" width="25" height="25"><defs><style type="text/css"></style></defs><path d="M934.912 591.36c-11.264 0-20.48 9.216-20.48 20.48v233.472c0 48.64-39.424 88.064-88.064 88.064H163.328c-48.64 0-88.064-39.424-88.064-88.064v-233.472c0-11.264-9.216-20.48-20.48-20.48s-20.48 9.216-20.48 20.48v233.472c0 71.168 57.856 129.024 129.024 129.024h663.552c71.168 0 129.024-57.856 129.024-129.024v-233.472c-0.512-11.264-9.216-20.48-20.992-20.48z" fill="#288F0E" p-id="25210" data-spm-anchor-id="a313x.7781069.0.i27" class=""></path><path d="M283.136 836.096h171.008c11.264 0 20.48-9.216 20.48-20.48s-9.216-20.48-20.48-20.48H283.136c-44.032 0-79.872-35.84-79.872-79.872V174.592c0-44.032 35.84-79.872 79.872-79.872h398.848c44.032 0 79.872 35.84 79.872 79.872v237.568c0 11.264 9.216 20.48 20.48 20.48s20.48-9.216 20.48-20.48V174.592c0-66.56-54.272-120.832-120.832-120.832H283.136c-66.56 0-120.832 54.272-120.832 120.832v540.672c0.512 66.56 54.272 120.832 120.832 120.832z" fill="#288F0E" p-id="25211"></path><path d="M314.88 283.648h332.288c11.264 0 20.48-9.216 20.48-20.48s-9.216-20.48-20.48-20.48H314.88c-11.264 0-20.48 9.216-20.48 20.48s9.216 20.48 20.48 20.48zM541.696 442.88c0-11.264-9.216-20.48-20.48-20.48H314.88c-11.264 0-20.48 9.216-20.48 20.48s9.216 20.48 20.48 20.48h205.824c11.776 0 20.992-9.216 20.992-20.48zM314.88 602.624c-11.264 0-20.48 9.216-20.48 20.48s9.216 20.48 20.48 20.48h87.552c11.264 0 20.48-9.216 20.48-20.48s-9.216-20.48-20.48-20.48H314.88zM668.16 849.408c104.96 0 190.976-85.504 190.976-190.976 0-104.96-85.504-190.976-190.976-190.976-104.96 0-190.976 85.504-190.976 190.976 0 105.472 85.504 190.976 190.976 190.976z m0-340.48c82.432 0 150.016 67.072 150.016 150.016S751.104 808.96 668.16 808.96s-150.016-67.072-150.016-150.016 67.584-150.016 150.016-150.016z" fill="#288F0E" p-id="25212" data-spm-anchor-id="a313x.7781069.0.i25" class=""></path><path d="M598.016 655.36c3.584 0 6.656-1.536 9.216-4.096l47.104-47.104v140.8c0 7.168 6.144 13.312 13.312 13.312 7.168 0 13.312-6.144 13.312-13.312V604.16l47.104 47.104c2.56 2.56 6.144 4.096 9.216 4.096s6.656-1.536 9.216-4.096c5.12-5.12 5.12-13.824 0-18.944l-70.144-69.632c-0.512 0-0.512-0.512-1.024-0.512 0 0-0.512 0-0.512-0.512l-0.512-0.512s-0.512 0-0.512-0.512c0 0-0.512 0-0.512-0.512 0 0-0.512 0-0.512-0.512 0 0-0.512 0-0.512-0.512h-0.512-0.512-0.512-0.512-0.512-2.56-0.512-0.512-0.512-0.512-0.512-0.512s-0.512 0-0.512 0.512c0 0-0.512 0-0.512 0.512 0 0-0.512 0-0.512 0.512 0 0-0.512 0-0.512 0.512l-0.512 0.512s-0.512 0-0.512 0.512c-0.512 0-0.512 0.512-1.024 0.512L588.8 632.832c-5.12 5.12-5.12 13.824 0 18.944 2.56 2.048 6.144 3.584 9.216 3.584z" fill="#288F0E" p-id="25213"></path></svg>