<?xml version="1.0" standalone="no"?><!DOCTYPE svg PUBLIC "-//W3C//DTD SVG 1.1//EN" "http://www.w3.org/Graphics/SVG/1.1/DTD/svg11.dtd"><svg t="1516269195697" class="icon" style="" viewBox="0 0 1024 1024" version="1.1" xmlns="http://www.w3.org/2000/svg" p-id="25882" xmlns:xlink="http://www.w3.org/1999/xlink" width="25" height="25"><defs><style type="text/css"></style></defs><path d="M511.283 63.062c-247.394 0-448.177 200.783-448.177 448.177S263.89 959.416 511.283 959.416 959.46 758.633 959.46 511.239 758.677 63.062 511.283 63.062z m44.818 761.901h-89.635v-89.635h89.635v89.635z m92.773-347.337l-40.336 41.232c-32.269 32.717-52.437 59.608-52.437 126.834h-89.635v-22.409c0-49.3 20.168-94.117 52.437-126.834l55.574-56.47c16.583-16.134 26.443-38.543 26.443-63.193 0-49.3-40.336-89.635-89.635-89.635s-89.635 40.336-89.635 89.635h-89.635c0-99.047 80.224-179.271 179.271-179.271s179.271 80.224 179.271 179.271a142.629 142.629 0 0 1-41.683 100.84z" p-id="25883" fill="#FE8724"></path></svg>