<?xml version="1.0" standalone="no"?><!DOCTYPE svg PUBLIC "-//W3C//DTD SVG 1.1//EN" "http://www.w3.org/Graphics/SVG/1.1/DTD/svg11.dtd"><svg t="1516268500208" class="icon" style="" viewBox="0 0 1024 1024" version="1.1" xmlns="http://www.w3.org/2000/svg" p-id="2938" xmlns:xlink="http://www.w3.org/1999/xlink" width="25" height="25"><defs><style type="text/css"></style></defs><path d="M391.506455 544.292162c0 16.134061 3.187439 32.266923 9.316683 47.173017 6.128445 14.91109 15.201294 28.584819 26.53441 39.998281 11.328919 11.410464 24.904315 20.547269 39.707878 26.720883 14.799566 6.177612 30.817506 9.382639 46.840642 9.382639 16.019938 0 32.037678-3.205027 46.837244-9.382639 14.803763-6.173614 28.379958-15.31042 39.713075-26.720883 11.329119-11.413662 20.400768-25.087391 26.530213-39.998281 6.133641-14.905894 9.32108-31.039955 9.32108-47.173017 0-16.139258-3.187439-32.27212-9.32108-47.177014-6.129444-14.91109-15.201294-28.584819-26.530213-39.995283-11.333116-11.414661-24.909311-20.551666-39.713075-26.72508-14.799566-6.176612-30.818505-9.382639-46.837244-9.382639-16.022936 0-32.040876 3.206026-46.840642 9.382639-14.803763 6.173614-28.378759 15.31042-39.707878 26.72508-11.333116 11.409464-20.406165 25.083194-26.53441 39.995283C394.693694 512.019843 391.506455 528.152904 391.506455 544.292162L391.506455 544.292162zM954.352045 514.505158c0 0-0.507856-11.74044-108.413696-113.323966-154.240625-134.341117-291.72521-153.629239-393.98268-140.883881-102.258269 12.745359-179.208697 68.201359-185.362124 71.649222-48.565273 27.21255-185.707091 162.582569-193.911728 179.461125-19.495582 40.300276 7.181931 80.599554 7.181931 80.599554s221.272977 239.593156 422.366635 239.593156 296.513964-87.000214 336.868603-118.685331c40.35464-31.691313 89.94042-89.21771 115.252659-123.315392C972.138386 551.362768 954.352045 514.505158 954.352045 514.505158L954.352045 514.505158zM513.906068 751.272829c-113.498848 0-205.508465-92.66957-205.508465-206.980867 0-114.315294 92.009418-206.985064 205.508265-206.985064 113.496849 0 205.504468 92.66957 205.504468 206.985064C719.410336 658.603259 627.402917 751.272829 513.906068 751.272829L513.906068 751.272829z" p-id="2939" fill="#FAD124"></path></svg>